<?xml version="1.0" encoding="UTF-8"?>
<svg version="1.1" xmlns="http://www.w3.org/2000/svg" width="512" height="512">
<path d="M0 0 C1.01790619 0.00215515 2.03581238 0.0043103 3.08456421 0.00653076 C17.69363523 0.05620146 32.02575853 0.30709809 46.375 3.3125 C47.34985352 3.51117676 48.32470703 3.70985352 49.32910156 3.91455078 C97.7109774 14.03517194 141.69928269 35.9516877 177.375 70.3125 C178.3640332 71.26068604 178.3640332 71.26068604 179.37304688 72.22802734 C188.86130305 81.37247479 197.6012044 90.66984009 205.375 101.3125 C206.23306152 102.46355017 207.09113451 103.61459177 207.94921875 104.765625 C213.98736829 112.95680614 219.34595521 121.47054105 224.375 130.3125 C224.73948242 130.94430176 225.10396484 131.57610352 225.47949219 132.22705078 C247.08534998 169.97532572 256.85198095 212.74189997 256.6875 255.9375 C256.68534485 256.95540619 256.6831897 257.97331238 256.68096924 259.02206421 C256.63129854 273.63113523 256.38040191 287.96325853 253.375 302.3125 C253.07698486 303.77478027 253.07698486 303.77478027 252.77294922 305.26660156 C242.65232806 353.6484774 220.7358123 397.63678269 186.375 433.3125 C185.74287598 433.97185547 185.11075195 434.63121094 184.45947266 435.31054688 C175.31502521 444.79880305 166.01765991 453.5387044 155.375 461.3125 C154.22394983 462.17056152 153.07290823 463.02863451 151.921875 463.88671875 C143.73224019 469.92427396 135.22961724 475.30707302 126.375 480.3125 C125.66778809 480.7146875 124.96057617 481.116875 124.23193359 481.53125 C101.09654164 494.5566741 75.92537591 503.30551461 49.9375 508.625 C49.21860596 508.77235596 48.49971191 508.91971191 47.7590332 509.0715332 C33.08339502 511.86090125 18.55831162 512.66142619 3.64770508 512.62817383 C0.70811513 512.6250221 -2.2304558 512.64854926 -5.16992188 512.67382812 C-18.54306192 512.71848737 -31.43916711 511.51301542 -44.625 509.3125 C-46.33055054 509.03031616 -46.33055054 509.03031616 -48.07055664 508.74243164 C-91.33802759 500.97044532 -132.38793216 480.98345309 -165.625 452.3125 C-166.37007813 451.67828125 -167.11515625 451.0440625 -167.8828125 450.390625 C-181.38779833 438.57948485 -194.05918743 425.82889772 -204.625 411.3125 C-205.48149066 410.16255169 -206.33826433 409.01281411 -207.1953125 407.86328125 C-213.23534209 399.67315742 -218.61867614 391.16870382 -223.625 382.3125 C-224.0271875 381.60528809 -224.429375 380.89807617 -224.84375 380.16943359 C-237.8691741 357.03404164 -246.61801461 331.86287591 -251.9375 305.875 C-252.08485596 305.15610596 -252.23221191 304.43721191 -252.3840332 303.6965332 C-255.35789088 288.05024391 -255.99800362 272.57681954 -255.9375 256.6875 C-255.93534485 255.66959381 -255.9331897 254.65168762 -255.93096924 253.60293579 C-255.88129854 238.99386477 -255.63040191 224.66174147 -252.625 210.3125 C-252.42632324 209.33764648 -252.22764648 208.36279297 -252.02294922 207.35839844 C-241.90232806 158.9765226 -219.9858123 114.98821731 -185.625 79.3125 C-184.99287598 78.65314453 -184.36075195 77.99378906 -183.70947266 77.31445312 C-174.56502521 67.82619695 -165.26765991 59.0862956 -154.625 51.3125 C-153.47394983 50.45443848 -152.32290823 49.59636549 -151.171875 48.73828125 C-142.98224019 42.70072604 -134.47961724 37.31792698 -125.625 32.3125 C-124.91778809 31.9103125 -124.21057617 31.508125 -123.48193359 31.09375 C-100.34654164 18.0683259 -75.17537591 9.31948539 -49.1875 4 C-48.46860596 3.85264404 -47.74971191 3.70528809 -47.0090332 3.5534668 C-31.36274391 0.57960912 -15.88931954 -0.06050362 0 0 Z " fill="#20AEEF" transform="translate(255.625,-0.3125)"/>
<path d="M0 0 C1.25240479 -0.00960754 2.50480957 -0.01921509 3.79516602 -0.02911377 C5.14729629 -0.03396557 6.49942872 -0.03824345 7.8515625 -0.04199219 C8.54353729 -0.04481956 9.23551208 -0.04764694 9.94845581 -0.05056 C13.61619438 -0.06549899 17.28389421 -0.07475975 20.95166016 -0.07910156 C24.69541294 -0.08455466 28.43879624 -0.10853029 32.18243408 -0.13707352 C35.09968008 -0.15592357 38.01684138 -0.16091736 40.93414307 -0.16243744 C42.31172691 -0.16541834 43.68931098 -0.17328711 45.0668335 -0.18662262 C68.51855138 -0.39731063 88.76494813 6.4061229 106.09765625 22.62597656 C121.72372456 39.27838762 127.02807277 58.76308197 126.92260742 81.03417969 C126.91405612 83.78818605 126.94301556 86.54014041 126.97460938 89.29394531 C127.02406268 101.49649564 126.19755756 111.11846781 117.4765625 120.40332031 C111.09736023 126.01004105 104.70827633 128.27566205 96.33029175 128.30830383 C95.06870743 128.31545914 93.80712311 128.32261444 92.50730896 128.32998657 C91.11148096 128.33282667 89.71565269 128.33553842 88.31982422 128.33813477 C86.84779196 128.34440232 85.37576127 128.35104938 83.9037323 128.35804749 C79.07124934 128.3790595 74.23876618 128.38944872 69.40625 128.39941406 C67.73981841 128.403463 66.07338698 128.40757996 64.40695572 128.41176414 C56.57517899 128.4308113 48.74341164 128.44504207 40.91161621 128.45337611 C31.88586463 128.46314038 22.86035882 128.48944062 13.83469379 128.52987701 C6.84937458 128.56009282 -0.1358744 128.57485025 -7.12125766 128.57815713 C-11.28888735 128.58050181 -15.45625434 128.58938573 -19.62381363 128.6146183 C-23.54897518 128.63799938 -27.47370295 128.64209235 -31.39891624 128.63185692 C-32.83313508 128.63136384 -34.26737599 128.63761659 -35.70152855 128.65141296 C-47.23988163 128.75612688 -56.2056373 127.16638573 -64.76953125 119.08691406 C-71.38775821 111.82013034 -73.83153398 104.26657623 -73.859375 94.57128906 C-73.8660318 93.7497081 -73.8726886 92.92812714 -73.87954712 92.08164978 C-73.88964165 90.34441348 -73.89436513 88.60713865 -73.89404297 86.86987305 C-73.89837296 84.2624971 -73.93460402 81.65687682 -73.97265625 79.04980469 C-74.11289583 58.47025858 -68.58980608 40.70539378 -54.5234375 25.16113281 C-53.84667969 24.3915625 -53.16992188 23.62199219 -52.47265625 22.82910156 C-39.15481369 8.53737654 -19.46153479 0.12147334 0 0 Z " fill="#FEFEFE" transform="translate(194.5234375,251.8388671875)"/>
<path d="M0 0 C11.39737018 7.81912606 20.64130515 18.70047518 23.80859375 32.4453125 C25.92808601 48.61347473 24.94101268 62.8330696 15.5625 76.625 C6.31741615 88.35383773 -4.84866158 96.10518949 -19.75 98.8125 C-36.10401647 100.57109437 -49.51647549 97.05267495 -62.8359375 87.265625 C-72.60632022 79.04069156 -80.35437412 66.36783296 -82.0534668 53.51733398 C-82.18611038 51.1902231 -82.21807412 48.89311497 -82.1875 46.5625 C-82.17505249 45.32197876 -82.17505249 45.32197876 -82.16235352 44.05639648 C-81.78565078 30.2551343 -76.44011147 17.47896164 -66.875 7.4375 C-48.28955139 -9.72649939 -22.03198736 -13.03129926 0 0 Z " fill="#FDFEFE" transform="translate(249.75,139.1875)"/>
<path d="M0 0 C4.48606189 2.32610617 6.7538362 4.51455626 9 9 C9.34057617 11.67895508 9.34057617 11.67895508 9.29296875 14.51953125 C9.2784668 16.0519043 9.2784668 16.0519043 9.26367188 17.61523438 C9.23853516 18.67033203 9.21339844 19.72542969 9.1875 20.8125 C9.16719727 22.42415039 9.16719727 22.42415039 9.14648438 24.06835938 C9.11122577 26.71275455 9.06194366 29.35611748 9 32 C9.59949463 31.98428955 10.19898926 31.9685791 10.81665039 31.95239258 C13.56516877 31.8895587 16.31353542 31.85085765 19.0625 31.8125 C20.47692383 31.77479492 20.47692383 31.77479492 21.91992188 31.73632812 C27.75131722 31.67537277 31.90264973 32.0730059 37 35 C40.28158603 38.31764741 41.82780588 41.92856993 42.5625 46.5 C41.59384068 52.52721353 39.99852019 56.48782182 35.0625 60.22265625 C30.12334741 62.87040289 25.02600597 62.4348421 19.5625 62.25 C18.54478516 62.23195312 17.52707031 62.21390625 16.47851562 62.1953125 C13.98468345 62.14847997 11.49284953 62.08291427 9 62 C9.02094727 62.6297876 9.04189453 63.2595752 9.06347656 63.90844727 C9.14720099 66.79296571 9.19883621 69.67722768 9.25 72.5625 C9.30027344 74.0484668 9.30027344 74.0484668 9.3515625 75.56445312 C9.43656011 81.96052349 8.95668675 85.87918602 5 91 C0.51183366 94.59642886 -3.5490416 94.56455293 -9.1171875 94.4140625 C-13.60614997 93.76930637 -15.07455807 92.45052125 -18 89 C-21.62385439 83.47793617 -21.35567755 78.48987337 -21.1875 72.125 C-21.17396484 71.15046875 -21.16042969 70.1759375 -21.14648438 69.171875 C-21.11131962 66.78067137 -21.0621067 64.39063025 -21 62 C-21.63502441 62.02094727 -22.27004883 62.04189453 -22.92431641 62.06347656 C-25.82438076 62.14704581 -28.72419116 62.19878774 -31.625 62.25 C-32.62402344 62.28351563 -33.62304688 62.31703125 -34.65234375 62.3515625 C-40.80077057 62.43299862 -44.32508575 62.11240425 -49 58 C-52.74976591 53.733025 -53.35804062 49.80450272 -53.27734375 44.28125 C-52.70110012 39.54144325 -50.00910107 36.89104918 -46.5625 33.84765625 C-42.0115458 30.89976836 -36.84684127 31.57481565 -31.625 31.75 C-30.60277344 31.76804688 -29.58054687 31.78609375 -28.52734375 31.8046875 C-26.01725251 31.85160509 -23.50912236 31.91723271 -21 32 C-21.02094727 31.36497559 -21.04189453 30.72995117 -21.06347656 30.07568359 C-21.14704581 27.17561924 -21.19878774 24.27580884 -21.25 21.375 C-21.28351563 20.37597656 -21.31703125 19.37695312 -21.3515625 18.34765625 C-21.43309409 12.19202139 -21.12022867 8.67559647 -17 4 C-11.38316702 -1.06884928 -7.1925872 -1.58605769 0 0 Z " fill="#FDFEFE" transform="translate(349,178)"/>
<path d="M0 0 C3.81115988 1.90557994 5.79515686 3.53773434 8.765625 6.5 C10.09980469 7.8303125 10.09980469 7.8303125 11.4609375 9.1875 C12.84152344 10.5796875 12.84152344 10.5796875 14.25 12 C15.18585938 12.928125 16.12171875 13.85625 17.0859375 14.8125 C17.97023438 15.699375 18.85453125 16.58625 19.765625 17.5 C20.57805664 18.3146875 21.39048828 19.129375 22.22753906 19.96875 C24 22 24 22 24 24 C16.41 24 8.82 24 1 24 C0.67 16.08 0.34 8.16 0 0 Z " fill="#268DCF" transform="translate(357,186)"/>
</svg>
