<?xml version="1.0" encoding="UTF-8"?>
<svg version="1.1" xmlns="http://www.w3.org/2000/svg" width="512" height="512">
<path d="M0 0 C1.24387708 -0.00384115 2.48775416 -0.00768229 3.76932448 -0.01163983 C5.14689241 -0.01085964 6.52446028 -0.00998087 7.90202808 -0.00901413 C9.36764616 -0.01159857 10.83326353 -0.01461195 12.29887992 -0.01801753 C16.32724086 -0.02608157 20.35558397 -0.02787677 24.38395202 -0.028615 C28.72834079 -0.03046659 33.07272034 -0.03801447 37.41710377 -0.04475021 C46.91717488 -0.05832984 56.41724177 -0.06435768 65.91732097 -0.06876087 C71.84978338 -0.07152393 77.78224416 -0.0757614 83.71470547 -0.08026505 C100.14158717 -0.09245724 116.56846757 -0.10275664 132.9953537 -0.10614014 C134.57227127 -0.10646949 134.57227127 -0.10646949 136.18104576 -0.10680549 C137.23483215 -0.10702377 138.28861854 -0.10724204 139.37433785 -0.10746694 C141.50969199 -0.1079104 143.64504614 -0.10835696 145.78040028 -0.10880661 C146.83960852 -0.10902804 147.89881677 -0.10924947 148.99012224 -0.10947761 C166.15169607 -0.11342532 183.31322744 -0.13087875 200.47478487 -0.15416613 C218.09640652 -0.17788469 235.71800686 -0.19034222 253.33964473 -0.19150805 C263.23268243 -0.19242453 273.1256648 -0.19817 283.01868725 -0.21632767 C291.44311448 -0.23173544 299.86746928 -0.23684511 308.29190793 -0.22858956 C312.58882653 -0.22468547 316.88559928 -0.22560092 321.18249989 -0.23964691 C325.11999199 -0.25240014 329.05722886 -0.25117592 332.99472068 -0.2390562 C334.41533438 -0.23710166 335.83596625 -0.24016638 337.25655445 -0.24890056 C351.81718449 -0.33271944 363.1822423 2.77003768 374.10291004 12.75642776 C383.83137035 23.05599202 386.16507178 35.60570362 386.11360645 49.23135757 C386.117432 50.31680554 386.12125755 51.4022535 386.12519902 52.52059382 C386.13547898 56.1406776 386.13154634 59.76060128 386.12756824 63.38069534 C386.1319175 65.98321046 386.13710136 68.5857243 386.14305592 71.18823624 C386.15577557 77.51371629 386.1576 83.83915383 386.15525565 90.16464452 C386.15346912 95.30925931 386.15522931 100.45386125 386.15948009 105.5984745 C386.16007528 106.33203651 386.16067047 107.06559851 386.1612837 107.82138967 C386.16249551 109.31186909 386.16370965 110.80234851 386.16492607 112.29282793 C386.17579127 126.25666606 386.17364407 140.22048003 386.16754123 154.18431952 C386.16237407 166.94059429 386.17362402 179.69679266 386.19263945 192.45305232 C386.21204255 205.57058636 386.22026945 218.68808429 386.2165162 231.80563277 C386.21460776 239.16232709 386.21705665 246.5189564 386.23123074 253.87563896 C386.2444295 260.79580845 386.24185098 267.71582292 386.22881985 274.63599205 C386.22645765 277.17073748 386.22917588 279.7054937 386.23744297 282.24022675 C386.24794216 285.71050923 386.23978379 289.18028239 386.22713184 292.65054703 C386.23450613 293.6444461 386.24188041 294.63834517 386.24947816 295.6623624 C386.14715208 309.07940918 382.34944763 320.28210532 373.35291004 330.31892776 C365.31181581 337.97118766 354.71688487 342.25007743 343.70582008 342.26285553 C341.84000447 342.26861725 341.84000447 342.26861725 339.9364956 342.27449536 C338.55892768 342.27371517 337.18135981 342.2728364 335.803792 342.27186966 C334.33817393 342.2744541 332.87255656 342.27746748 331.40694016 342.28087306 C327.37857923 342.2889371 323.35023611 342.2907323 319.32186806 342.29147053 C314.97747929 342.29332212 310.63309975 342.30087 306.28871632 342.30760574 C296.78864521 342.32118537 287.28857832 342.32721321 277.78849912 342.3316164 C271.85603671 342.33437946 265.92357593 342.33861693 259.99111462 342.34312057 C243.56423291 342.35531277 227.13735251 342.36561217 210.71046638 342.36899567 C209.659188 342.36921523 208.60790962 342.3694348 207.52477432 342.36966102 C206.47098793 342.3698793 205.41720154 342.37009757 204.33148223 342.37032247 C202.19612809 342.37076593 200.06077395 342.37121249 197.92541981 342.37166214 C196.86621156 342.37188357 195.80700331 342.372105 194.71569785 342.37233314 C177.55412401 342.37628085 160.39259264 342.39373428 143.23103521 342.41702166 C125.60941356 342.44074022 107.98781322 342.45319775 90.36617535 342.45436358 C80.47313765 342.45528006 70.58015529 342.46102552 60.68713284 342.4791832 C52.2627056 342.49459097 43.8383508 342.49970064 35.41391215 342.49144509 C31.11699356 342.487541 26.82022081 342.48845645 22.5233202 342.50250244 C18.5858281 342.51525567 14.64859123 342.51403145 10.71109941 342.50191173 C9.29048571 342.49995719 7.86985383 342.50302191 6.44926564 342.51175609 C-8.1113644 342.59557497 -19.47642221 339.49281785 -30.39708996 329.50642776 C-40.12555027 319.20686351 -42.4592517 306.65715191 -42.40778637 293.03149796 C-42.41161192 291.94604999 -42.41543746 290.86060203 -42.41937894 289.74226171 C-42.4296589 286.12217793 -42.42572625 282.50225425 -42.42174816 278.88216019 C-42.42609742 276.27964507 -42.43128128 273.67713123 -42.43723583 271.07461929 C-42.44995549 264.74913924 -42.45177991 258.4237017 -42.44943557 252.09821101 C-42.44764904 246.95359622 -42.44940923 241.80899428 -42.45366001 236.66438103 C-42.4542552 235.93081902 -42.45485039 235.19725702 -42.45546361 234.44146586 C-42.45667543 232.95098644 -42.45788956 231.46050702 -42.45910599 229.9700276 C-42.46997119 216.00618947 -42.46782399 202.0423755 -42.46172114 188.07853601 C-42.45655398 175.32226124 -42.46780394 162.56606287 -42.48681936 149.80980321 C-42.50622247 136.69226917 -42.51444936 123.57477123 -42.51069611 110.45722276 C-42.50878768 103.10052844 -42.51123657 95.74389913 -42.52541065 88.38721657 C-42.53860942 81.46704708 -42.53603089 74.54703261 -42.52299976 67.62686348 C-42.52063757 65.09211805 -42.5233558 62.55736183 -42.53162289 60.02262878 C-42.54212207 56.5523463 -42.53396371 53.08257314 -42.52131176 49.6123085 C-42.52868604 48.61840943 -42.53606033 47.62451036 -42.54365808 46.60049313 C-42.441332 33.18344635 -38.64362754 21.98075021 -29.64708996 11.94392776 C-21.60599572 4.29166787 -11.01106478 0.0127781 0 0 Z M2.85291004 43.13142776 C6.3745136 45.94871061 9.55546504 48.28591478 13.36072254 50.60017776 C14.41984852 51.24736771 15.47897449 51.89455765 16.5701952 52.56135941 C18.25701405 53.58604324 18.25701405 53.58604324 19.97791004 54.63142776 C22.34364591 56.07616105 24.70770818 57.52362144 27.07166004 58.97127151 C27.95079563 59.50910515 27.95079563 59.50910515 28.84769154 60.05780411 C33.75156788 63.06092618 38.62295434 66.11252036 43.47791004 69.19392776 C50.48263954 73.63663378 57.50482946 78.05021729 64.54041004 82.44392776 C66.05465565 83.38957596 66.05465565 83.38957596 67.59949207 84.35432816 C69.65703776 85.63902926 71.71465536 86.92361521 73.77234364 88.20808792 C78.80037491 91.34732 83.82656345 94.48949928 88.85291004 97.63142776 C90.85290089 98.8814424 92.8529009 100.13144239 94.85291004 101.38142776 C98.85291004 103.88142776 102.85291004 106.38142776 106.85291004 108.88142776 C107.84307117 109.50025833 108.83323231 110.1190889 109.85339832 110.75667191 C111.85184389 112.00574105 113.85021638 113.25492711 115.84851551 114.5042305 C120.87170339 117.64443912 125.89617525 120.78255694 130.92322254 123.91658401 C131.9250658 124.54185989 132.92690907 125.16713577 133.95911121 125.81135941 C135.95530972 127.05621882 137.95284832 128.29893215 139.95178699 129.53938675 C145.04282168 132.70789757 150.0852816 135.93113688 155.07556629 139.25642776 C156.07765125 139.91699173 157.07973621 140.57755569 158.11218739 141.25813675 C160.0224632 142.52098292 161.92311631 143.79854347 163.8123827 145.09260941 C164.66493641 145.65327103 165.51749012 146.21393265 166.39587879 146.79158401 C167.13862049 147.29310989 167.88136219 147.79463577 168.64661121 148.31135941 C170.88729458 149.39026902 170.88729458 149.39026902 173.39392567 148.42097855 C175.54422222 147.29331111 177.61228958 146.15115041 179.65369129 144.83845901 C180.37065174 144.38108353 181.08761219 143.92370804 181.82629871 143.45247269 C182.59820545 142.95465286 183.37011219 142.45683304 184.16541004 141.94392776 C185.87594787 140.8521555 187.58690521 139.76104029 189.29822254 138.67049026 C190.20217762 138.09331253 191.1061327 137.5161348 192.03748035 136.92146683 C196.85413349 133.85905781 201.69776762 130.84000769 206.54041004 127.81892776 C208.58599456 126.54160259 210.63156736 125.26425866 212.67712879 123.98689651 C213.69854969 123.34929398 214.71997059 122.71169144 215.77234364 122.05476761 C220.80037491 118.91553553 225.82656345 115.77335625 230.85291004 112.63142776 C232.85290089 111.38141313 234.8529009 110.13141314 236.85291004 108.88142776 C238.33791004 107.95330276 238.33791004 107.95330276 239.85291004 107.00642776 C296.85291004 71.38142776 296.85291004 71.38142776 299.85828114 69.50325394 C301.84059738 68.26418508 303.82269695 67.02476951 305.8045702 65.78499222 C310.504791 62.84532058 315.2072027 59.90934918 319.91730213 56.98552322 C321.60339386 55.9386482 323.28870438 54.89051531 324.97400379 53.84236526 C327.10284428 52.51854849 329.23300206 51.19684715 331.36462879 49.87752151 C332.31724598 49.28455276 333.26986317 48.69158401 334.25134754 48.08064651 C335.09358875 47.55817337 335.93582996 47.03570023 336.80359364 46.49739456 C338.95491583 45.16021999 338.95491583 45.16021999 340.85291004 43.13142776 C229.31291004 43.13142776 117.77291004 43.13142776 2.85291004 43.13142776 Z M1.85291004 87.13142776 C1.85291004 157.09142776 1.85291004 227.05142776 1.85291004 299.13142776 C114.05291004 299.13142776 226.25291004 299.13142776 341.85291004 299.13142776 C341.85291004 229.17142776 341.85291004 159.21142776 341.85291004 87.13142776 C334.58178185 91.09749769 327.5913834 95.08608667 320.66541004 99.56892776 C318.73236789 100.8093711 316.79875384 102.04892357 314.86462879 103.28767776 C313.87511219 103.92189651 312.88559559 104.55611526 311.86609364 105.20955276 C306.92370362 108.3619182 301.95185225 111.46666761 296.97791004 114.56892776 C295.98122303 115.19081985 294.98453602 115.81271194 293.95764637 116.45344925 C291.93363565 117.71599291 289.90946552 118.97828107 287.8851366 120.24031448 C282.87200463 123.36686201 277.86263761 126.49942938 272.85291004 129.63142776 C270.85292833 130.88145703 268.85292833 132.13145702 266.85291004 133.38142776 C265.36791004 134.30955276 265.36791004 134.30955276 263.85291004 135.25642776 C244.75916004 147.19002151 225.66541004 159.12361526 206.57166004 171.05720901 C205.0224889 172.02606033 205.0224889 172.02606033 203.44202137 173.01448441 C201.40690216 174.2856096 199.3703144 175.55438705 197.33215809 176.82063675 C192.83894619 179.61549151 188.37001923 182.43173536 183.96619129 185.36580276 C183.23142567 185.84815384 182.49666004 186.33050491 181.73962879 186.82747269 C180.40265262 187.70824665 179.07491823 188.60329408 177.75916004 189.51546097 C175.99744129 190.66658401 175.99744129 190.66658401 172.85291004 192.13142776 C169.00033905 190.97865535 165.74892793 188.965955 162.34509754 186.85799026 C161.28597157 186.20435501 160.22684559 185.55071976 159.13562489 184.87727737 C157.99962743 184.17047616 156.86372467 183.46352273 155.72791004 182.75642776 C154.54918662 182.02644872 153.37031134 181.29671485 152.19128895 180.56721878 C143.987368 175.48497394 135.81914665 170.34676251 127.66931629 165.17830276 C122.1827768 161.70154762 116.67470456 158.25947468 111.16541004 154.81892776 C110.15591297 154.18849564 109.1464159 153.55806351 108.10632801 152.90852737 C106.04878232 151.62382627 103.99116473 150.33924032 101.93347645 149.05476761 C96.90544518 145.91553553 91.87925664 142.77335625 86.85291004 139.63142776 C84.85291919 138.38141313 82.85291918 137.13141314 80.85291004 135.88142776 C44.85291004 113.38142777 44.85291004 113.38142777 41.84729481 111.50276566 C39.86619545 110.26467951 37.88491568 109.02688199 35.90344715 107.78938675 C31.18646559 104.842975 26.47149384 101.8934823 21.7627306 98.93394852 C20.06991981 97.87017346 18.37645887 96.80743322 16.68298817 95.74470901 C14.53861757 94.39886973 12.39535 93.05127103 10.25330067 91.70174026 C9.29746082 91.1023262 8.34162098 90.50291214 7.35681629 89.88533401 C6.08559925 89.08591385 6.08559925 89.08591385 4.78870106 88.27034378 C3.08359097 87.04691253 3.08359097 87.04691253 1.85291004 87.13142776 Z " fill="#000000" transform="translate(84.14708995819092,84.86857223510742)"/>
</svg>
