<?xml version="1.0" encoding="UTF-8"?>
<svg version="1.1" xmlns="http://www.w3.org/2000/svg" width="512" height="512">
<path d="M0 0 C1.69038505 -0.00302301 3.38076873 -0.00691324 5.07115 -0.01159257 C9.70231744 -0.02186214 14.33340737 -0.01969339 18.96458113 -0.01541197 C23.96470765 -0.01294285 28.9648156 -0.02196125 33.9649353 -0.02944946 C43.75555096 -0.04219348 53.54613919 -0.04399051 63.33676175 -0.0416492 C71.29602062 -0.03986549 79.25527116 -0.04161683 87.21452904 -0.04587364 C88.34774306 -0.04646883 89.48095709 -0.04706402 90.64851093 -0.04767724 C92.95071835 -0.04888901 95.25292577 -0.05010314 97.55513319 -0.05131962 C119.14162641 -0.0621941 140.728104 -0.06003315 162.31459811 -0.05393478 C182.05471065 -0.04876618 201.79477384 -0.06001974 221.53487662 -0.07903299 C241.81216668 -0.09841368 262.08943339 -0.10666696 282.36673278 -0.10290974 C293.74759558 -0.10099799 305.12841638 -0.10348274 316.50927162 -0.11762428 C326.19836671 -0.12954199 335.88739394 -0.13093859 345.57648996 -0.11883412 C350.51770843 -0.1129481 355.45880279 -0.11183838 360.40001297 -0.12383652 C364.92834607 -0.13470411 369.45645158 -0.1315815 373.98477408 -0.11757483 C375.61795126 -0.11493032 377.25114632 -0.11728668 378.88430593 -0.1253107 C398.20924156 -0.21362451 414.28890113 4.42097224 428.43327332 18.26069641 C441.14230098 33.09512461 444.89754413 48.06851149 444.82095337 67.13713074 C444.82513159 68.83678066 444.83061178 70.53642779 444.83727318 72.2360698 C444.85168242 76.88362349 444.84749724 81.53099916 444.84010637 86.1785624 C444.83536578 91.19981297 444.84789242 96.22102551 444.85812378 101.24226379 C444.87529965 111.07038372 444.8761543 120.89843968 444.87091088 130.72657071 C444.86686569 138.71676443 444.86831687 146.70693929 444.87365913 154.69713211 C444.87440756 155.83533715 444.87515598 156.9735422 444.87592708 158.1462383 C444.87745859 160.45867093 444.87899694 162.77110355 444.88054205 165.08353616 C444.8942627 186.75782423 444.88883244 208.43207619 444.87735683 230.10636343 C444.8674249 249.9232878 444.88036524 269.74011879 444.90429103 289.55702876 C444.9286893 309.91914293 444.9382881 330.28121364 444.9316383 350.64334214 C444.92814771 362.06949016 444.93036762 373.49556638 444.94788933 384.92170334 C444.96262038 394.64843636 444.96323486 404.37504701 444.94581842 414.10177766 C444.93731357 419.06139386 444.93514638 424.02079154 444.95046997 428.98039627 C444.96434221 433.52665276 444.95952136 438.07250403 444.94023073 442.61873724 C444.9364782 444.25725491 444.93937103 445.89580524 444.94984239 447.53429376 C445.06095222 466.26197526 439.59601275 482.52665752 426.43327332 496.26069641 C411.58716046 509.27424221 395.96638567 512.5697938 376.8598175 512.52139282 C375.16871976 512.52441582 373.47762339 512.52830605 371.78652942 512.53298539 C367.15343138 512.54325495 362.52041082 512.54108622 357.88730645 512.5368048 C352.88515405 512.53433569 347.88302022 512.54335402 342.88087463 512.55084229 C333.08658397 512.56358607 323.29232073 512.56538338 313.49802317 512.56304202 C305.53637203 512.56125838 297.57472921 512.56300949 289.61307907 512.56726646 C287.91282495 512.56815925 287.91282495 512.56815925 286.17822226 512.56907007 C283.87544911 512.57028183 281.57267596 512.57149596 279.26990281 512.57271244 C257.67867096 512.5835867 236.08745473 512.581426 214.496222 512.5753276 C194.74896738 512.57015827 175.00176208 512.58141452 155.25451721 512.60042582 C134.97158192 512.61980296 114.68866997 512.62806045 94.40572536 512.62430257 C83.02098204 512.62239037 71.63628071 512.62487992 60.25154495 512.63901711 C50.55985943 512.65093025 40.86824174 512.65233648 31.17655529 512.64022694 C26.23343547 512.6343379 21.29043974 512.63323961 16.34732819 512.64522934 C11.81843055 512.65608658 7.28976063 512.65298662 2.76087366 512.63896766 C1.12636839 512.63632031 -0.50815472 512.63868845 -2.14264248 512.64670352 C-14.29437616 512.70213552 -24.76318764 511.17395143 -35.69172668 505.57319641 C-36.37549377 505.22434387 -37.05926086 504.87549133 -37.76374817 504.5160675 C-51.37765107 497.31887777 -60.08838864 485.24307525 -65.42907387 470.95337379 C-68.03795188 462.46188807 -67.9896758 454.16511696 -67.95440674 445.38426208 C-67.95858496 443.68461216 -67.96406515 441.98496503 -67.97072655 440.28532302 C-67.98513579 435.63776933 -67.98095061 430.99039367 -67.97355974 426.34283042 C-67.96881915 421.32157985 -67.98134579 416.30036731 -67.99157715 411.27912903 C-68.00875302 401.4510091 -68.00960767 391.62295315 -68.00436424 381.79482211 C-68.00031906 373.80462839 -68.00177024 365.81445354 -68.0071125 357.82426071 C-68.00786093 356.68605567 -68.00860935 355.54785062 -68.00938045 354.37515452 C-68.01091196 352.06272189 -68.01245031 349.75028927 -68.01399542 347.43785666 C-68.02771607 325.76356859 -68.02228581 304.08931664 -68.0108102 282.41502939 C-68.00087827 262.59810502 -68.01381861 242.78127403 -68.0377444 222.96436407 C-68.06214267 202.60224989 -68.07174147 182.24017919 -68.06509167 161.87805068 C-68.06160108 150.45190266 -68.06382099 139.02582644 -68.0813427 127.59968948 C-68.09607375 117.87295646 -68.09668823 108.14634581 -68.07927179 98.41961516 C-68.07076694 93.45999896 -68.06859975 88.50060128 -68.08392334 83.54099655 C-68.09779558 78.99474006 -68.09297473 74.44888879 -68.0736841 69.90265559 C-68.06993157 68.26413791 -68.0728244 66.62558758 -68.08329576 64.98709907 C-68.19550417 46.07424975 -62.84985741 30.06108301 -49.56672668 16.26069641 C-34.76080614 3.23238639 -19.08015235 -0.04835513 0 0 Z M32.05827332 102.57319641 C31.59678894 103.10557922 31.13530457 103.63796204 30.65983582 104.18647766 C27.01236196 110.35465797 27.14380185 116.87803521 27.16584778 123.8298645 C27.16131667 124.88234633 27.15678555 125.93482815 27.15211713 127.01920336 C27.13947496 130.53960593 27.14109341 134.05985376 27.14274597 137.58027649 C27.13676064 140.10692544 27.12995508 142.63357257 27.12239075 145.16021729 C27.10655897 151.3075001 27.10028241 157.4547264 27.09916599 163.60202769 C27.0982143 168.60082721 27.09409795 173.59961412 27.08776474 178.59840965 C27.07015982 192.78348472 27.06092474 206.96852957 27.06242569 221.15361563 C27.0625056 221.91767543 27.06258551 222.68173524 27.06266785 223.46894836 C27.06274961 224.23394536 27.06283137 224.99894236 27.06291561 225.78712108 C27.06372838 238.18277038 27.04459106 250.57829813 27.01639111 262.97391228 C26.98763721 275.71395063 26.97385218 288.45392976 26.97557867 301.19400138 C26.97624168 308.34165469 26.97078809 315.48918056 26.94922256 322.63680458 C26.92906693 329.3599982 26.92970998 336.08287843 26.94425583 342.80610085 C26.94634606 345.27073561 26.94163038 347.73538717 26.92953491 350.19999313 C26.91406758 353.57050298 26.9234015 356.94008706 26.938797 360.31057739 C26.92850987 361.2805388 26.91822274 362.25050021 26.90762389 363.24985439 C26.98189208 370.63267013 28.36827547 377.92389688 33.50358582 383.51460266 C34.52065613 384.16235657 34.52065613 384.16235657 35.55827332 384.82319641 C36.24147644 385.27823547 36.92467957 385.73327454 37.62858582 386.20210266 C41.85867818 388.68339061 45.66521401 388.4157978 50.46940613 388.42182922 C51.40615677 388.42679413 52.34290741 388.43175903 53.30804443 388.43687439 C56.41750312 388.45151925 59.52691076 388.45830252 62.63639832 388.46382141 C64.79393007 388.46957174 66.95146181 388.47532949 69.10899353 388.48109436 C73.63847594 388.4916115 78.16794056 388.49744924 82.69743347 388.50093079 C88.49919887 388.50641152 94.30072911 388.53042768 100.10242081 388.55890274 C104.56169824 388.57753621 109.02091917 388.58273514 113.48023224 388.58426666 C115.61884087 388.58729302 117.75744852 388.59532095 119.89601898 388.60845184 C122.8907146 388.62552396 125.88483772 388.6236289 128.87956238 388.61714172 C129.76187027 388.62635651 130.64417816 388.63557129 131.55322266 388.64506531 C137.6191295 388.60394455 141.92590308 387.59400905 146.51530457 383.32319641 C147.08635925 382.64257141 147.65741394 381.96194641 148.24577332 381.26069641 C148.82971863 380.58007141 149.41366394 379.89944641 150.01530457 379.19819641 C152.27409203 376.11180913 152.55888394 373.50915689 152.56470108 369.80373764 C152.5704628 368.42705371 152.5704628 368.42705371 152.57634091 367.02255797 C152.57547443 366.01275193 152.57460795 365.0029459 152.57371521 363.96253967 C152.57668633 362.89094109 152.57965745 361.8193425 152.58271861 360.71527123 C152.59142516 357.10638172 152.59291551 353.4975253 152.59440613 349.8886261 C152.59903292 347.30844044 152.60405739 344.72825546 152.60945129 342.14807129 C152.62303725 335.12527736 152.62905984 328.10248914 152.63346195 321.07968426 C152.63622412 316.69471045 152.64046145 312.30973885 152.64496613 307.92476654 C152.6571595 295.78456638 152.66745844 283.64436799 152.67084122 271.50416183 C152.67106078 270.72704637 152.67128035 269.94993091 152.67150657 269.1492665 C152.67172485 268.37028769 152.67194312 267.59130888 152.67216802 266.78872466 C152.67261148 265.21020873 152.67305805 263.63169281 152.67350769 262.05317688 C152.67372912 261.27017787 152.67395055 260.48717887 152.67417869 259.68045262 C152.67812618 246.99478758 152.6955784 234.30918 152.71886721 221.62353715 C152.74258334 208.60001317 152.7550432 195.57651801 152.75620914 182.55297208 C152.75712579 175.24049581 152.76287557 167.92809438 152.78102875 160.61563873 C152.79804366 153.73743258 152.79968037 146.8593707 152.79088974 139.98114967 C152.79011765 137.45559369 152.79448455 134.93003017 152.80434799 132.40449333 C152.81701797 128.95842108 152.81121714 125.51285619 152.80076599 122.06678772 C152.8088224 121.06590457 152.8168788 120.06502141 152.82517934 119.03380847 C152.7752086 111.99512091 151.79945787 107.16772315 147.24577332 101.57319641 C140.87652378 96.3362579 135.28085711 94.66329217 127.11491394 94.74311829 C126.21951401 94.73610901 125.32411407 94.72909973 124.40158081 94.72187805 C121.46390579 94.70438093 118.52720685 94.71589132 115.58952332 94.72944641 C113.5350374 94.72674912 111.48055273 94.72286472 109.42607117 94.71784973 C105.12903133 94.71196589 100.83232504 94.72048181 96.5353241 94.73921204 C91.0409159 94.7620007 85.5472894 94.74887166 80.05290985 94.72492218 C75.81311709 94.71043416 71.57350816 94.715084 67.33370972 94.72543335 C65.30840969 94.72809232 63.28309271 94.72486021 61.2578125 94.71551514 C58.42197268 94.70530005 55.58738016 94.72091978 52.75163269 94.74311829 C51.92334457 94.73502136 51.09505646 94.72692444 50.2416687 94.71858215 C43.20795886 94.82004013 36.67252617 96.98541622 32.05827332 102.57319641 Z M229.05827332 102.69819641 C228.59678894 103.25378235 228.13530457 103.80936829 227.65983582 104.38179016 C224.89806616 108.61239909 224.18177742 112.30219662 224.16584778 117.31289673 C224.15731781 118.52826111 224.14878784 119.74362549 224.13999939 120.99581909 C224.14069835 122.33451856 224.14162137 123.67321793 224.14274597 125.01191711 C224.13675854 126.42823134 224.1299525 127.8445423 224.12239075 129.260849 C224.10474419 133.10189417 224.10003591 136.94285018 224.09875917 140.78393197 C224.09733613 143.18595252 224.09306359 145.5879505 224.08776474 147.98996544 C224.06926812 156.37636627 224.06109357 164.76270359 224.06266785 173.14912415 C224.06386879 180.95572053 224.04277489 188.76204023 224.01118052 196.56856662 C223.98499174 203.27957813 223.97430166 209.99049943 223.97557867 216.70156163 C223.97608759 220.7058979 223.97044357 224.70998827 223.94922256 228.71427345 C223.92979637 232.48270049 223.92974517 236.25064819 223.94425583 240.01909256 C223.94732936 242.05241478 223.93069775 244.08573727 223.91337585 246.11898804 C223.96917689 254.25950794 224.70598326 259.94137594 230.17936707 266.28413391 C231.01661316 266.95315735 231.01661316 266.95315735 231.87077332 267.63569641 C232.42635925 268.09718079 232.98194519 268.55866516 233.55436707 269.03413391 C238.74425912 272.42212997 243.38438682 272.55772883 249.39518738 272.55122375 C250.73522072 272.56129959 250.73522072 272.56129959 252.10232544 272.57157898 C255.05123991 272.59055231 257.99992662 272.59448312 260.94889832 272.59663391 C263.0052754 272.60306324 265.06165156 272.60979171 267.11802673 272.61680603 C271.42869689 272.62877782 275.73928693 272.63248705 280.04997253 272.63130188 C285.55888451 272.63109892 291.06727931 272.65837829 296.57606888 272.6928463 C300.82445102 272.71514671 305.07270943 272.71913842 309.3211441 272.71808243 C311.35121693 272.72043452 313.38129336 272.72923588 315.41130829 272.74474716 C318.25916112 272.76446671 321.10590835 272.75854527 323.95378113 272.74653625 C324.7831871 272.75777527 325.61259308 272.76901428 326.46713257 272.78059387 C333.27265054 272.7081119 339.54651465 270.98533638 344.58952332 266.22554016 C345.03296082 265.55651672 345.47639832 264.88749329 345.93327332 264.19819641 C346.39733582 263.52659485 346.86139832 262.85499329 347.33952332 262.16304016 C349.42760247 258.53127391 349.56215486 255.55338925 349.57371521 251.44900513 C349.57942535 250.23639008 349.5851355 249.02377502 349.59101868 247.77441406 C349.59226403 246.42845164 349.59338913 245.0824891 349.59440613 243.73652649 C349.599035 242.32050955 349.60405975 240.90449386 349.60945129 239.48847961 C349.62257329 235.6390698 349.62902021 231.78967742 349.63346195 227.94024873 C349.63639385 225.53389073 349.64049895 223.12753748 349.64496613 220.72118187 C349.6586424 213.18840711 349.66830763 205.65564323 349.67216802 198.12285691 C349.67664501 189.43501056 349.69417562 180.74732184 349.72316861 172.0595234 C349.74481205 165.34006963 349.75487377 158.62066011 349.75620914 151.90117186 C349.75725554 147.89013623 349.76312778 143.87924874 349.78102875 139.86824989 C349.7975549 136.09171714 349.79964306 132.31544314 349.79088974 128.53888702 C349.79012171 127.15705101 349.79443116 125.77520083 349.80434799 124.39340019 C349.96634004 112.40791606 349.96634004 112.40791606 344.56608582 102.01850891 C343.90350769 101.47968079 343.24092957 100.94085266 342.55827332 100.38569641 C341.90085144 99.83139954 341.24342957 99.27710266 340.56608582 98.70600891 C335.29002917 95.13065917 330.63284857 94.96349625 324.45549011 94.97016907 C323.56052826 94.96345184 322.66556641 94.95673462 321.7434845 94.94981384 C318.7897636 94.93084234 315.83627007 94.92690996 312.88249207 94.92475891 C310.82371935 94.91833003 308.76494756 94.9116016 306.70617676 94.90458679 C302.39131045 94.89261588 298.07652419 94.88890574 293.76164246 94.89009094 C288.24366453 94.89029403 282.72620219 94.86300098 277.20834637 94.82854652 C272.95571555 94.80626327 268.7032085 94.80225386 264.45052528 94.80331039 C262.41683489 94.80095624 260.38314099 94.79214323 258.34950829 94.77664566 C255.49905618 94.75695859 252.64971164 94.76283464 249.79924011 94.77485657 C248.54973824 94.75799805 248.54973824 94.75799805 247.2749939 94.74079895 C240.16419871 94.81666468 233.6364528 96.96885619 229.05827332 102.69819641 Z " fill="#1269E4" transform="translate(67.56672668457031,-0.2606964111328125)"/>
</svg>
